<?xml version="1.0" encoding="utf-8"?>
<!-- Generator: Adobe Illustrator 27.1.1, SVG Export Plug-In . SVG Version: 6.00 Build 0)  -->
<svg version="1.1" id="Capa_1" xmlns="http://www.w3.org/2000/svg" xmlns:xlink="http://www.w3.org/1999/xlink" x="0px" y="0px"
	 viewBox="0 0 124.54 94.11" style="enable-background:new 0 0 124.54 94.11;" xml:space="preserve">
<style type="text/css">
	.st0{fill:url(#SVGID_1_);}
	.st1{fill:url(#SVGID_00000046314554117704948670000004454337212529834142_);}
	.st2{fill:url(#SVGID_00000153669658201413939030000006225312555073861517_);}
	.st3{fill:url(#SVGID_00000070836959140870875080000007950337069291374216_);}
</style>
<g>
	<linearGradient id="SVGID_1_" gradientUnits="userSpaceOnUse" x1="7.2539" y1="57.4824" x2="45.4674" y2="8.0845">
		<stop  offset="0" style="stop-color:#4CD9DF"/>
		<stop  offset="1" style="stop-color:#00C9D2"/>
	</linearGradient>
	<path class="st0" d="M35.6,4.67C32.11,20.01,20.01,32.11,4.67,35.6C1.96,36.22,0,38.57,0,41.34v11.42c0,3.65,3.3,6.42,6.89,5.78
		c9.23-1.65,17.78-5.3,25.18-10.46c6.24-4.34,11.66-9.77,16-16c6.01-8.61,9.96-18.78,11.11-29.76C59.32,1.08,58.37,0,57.13,0H41.34
		C38.57,0,36.22,1.96,35.6,4.67z"/>
	
		<linearGradient id="SVGID_00000070818321929283343300000014127846900596717465_" gradientUnits="userSpaceOnUse" x1="77.8882" y1="83.1686" x2="103.9852" y2="54.2755">
		<stop  offset="0" style="stop-color:#4CD9DF"/>
		<stop  offset="1" style="stop-color:#00C9D2"/>
	</linearGradient>
	<path style="fill:url(#SVGID_00000070818321929283343300000014127846900596717465_);" d="M65.35,91.8
		c-0.13,1.23,0.82,2.31,2.06,2.31h15.78c2.78,0,5.13-1.96,5.74-4.67c3.48-15.34,15.59-27.44,30.93-30.93
		c2.71-0.62,4.67-2.96,4.67-5.74V41.35c0-3.65-3.3-6.42-6.89-5.78c-9.23,1.65-17.78,5.29-25.18,10.46
		c-6.24,4.33-11.66,9.77-16,15.99C70.45,70.65,66.5,80.82,65.35,91.8z"/>
	
		<linearGradient id="SVGID_00000051381020133411670450000012974584920452082875_" gradientUnits="userSpaceOnUse" x1="65.4233" y1="1.1369" x2="122.0111" y2="57.7247">
		<stop  offset="0" style="stop-color:#1E18CF"/>
		<stop  offset="1" style="stop-color:#625DDD"/>
	</linearGradient>
	<path style="fill:url(#SVGID_00000051381020133411670450000012974584920452082875_);" d="M83.2,0H67.42
		c-1.24,0-2.19,1.08-2.07,2.31c1.15,10.98,5.1,21.15,11.11,29.76c4.34,6.24,9.77,11.66,16,16c7.4,5.17,15.95,8.81,25.18,10.46
		c3.59,0.64,6.89-2.13,6.89-5.78V41.34c0-2.78-1.96-5.12-4.67-5.74c-15.34-3.49-27.44-15.6-30.93-30.93C88.32,1.96,85.98,0,83.2,0z"
		/>
	
		<linearGradient id="SVGID_00000093166409921098502080000001564463604251050655_" gradientUnits="userSpaceOnUse" x1="2.5327" y1="36.3812" x2="59.1232" y2="92.9717">
		<stop  offset="0" style="stop-color:#1E18CF"/>
		<stop  offset="1" style="stop-color:#625DDD"/>
	</linearGradient>
	<path style="fill:url(#SVGID_00000093166409921098502080000001564463604251050655_);" d="M48.08,62.02
		c-4.34-6.22-9.77-11.66-16-15.99c-7.4-5.18-15.96-8.81-25.18-10.46C3.3,34.92,0,37.7,0,41.35v11.42c0,2.78,1.96,5.12,4.67,5.74
		c15.35,3.49,27.45,15.59,30.93,30.93c0.62,2.71,2.96,4.67,5.74,4.67h15.78c1.24,0,2.19-1.08,2.06-2.31
		C58.04,80.82,54.09,70.65,48.08,62.02z"/>
</g>
</svg>
